<svg width="150" height="150" viewBox="0 0 150 150" fill="none" xmlns="http://www.w3.org/2000/svg">
<g clip-path="url(#clip0_69_3)">
<path d="M74.9985 97.076C83.6441 97.076 90.6528 90.0673 90.6528 81.4217C90.6528 72.776 83.6441 65.7673 74.9985 65.7673C66.3528 65.7673 59.3441 72.776 59.3441 81.4217C59.3441 90.0673 66.3528 97.076 74.9985 97.076Z" fill="white"/>
<path d="M81.6391 98.1432H68.3564C57.3055 98.1432 48.3145 107.137 48.3145 118.187V134.435L48.3556 134.688L49.473 135.036C60.0192 138.332 69.1834 139.432 76.727 139.432C91.4555 139.432 99.9919 135.23 100.519 134.966L101.565 134.432L101.673 134.435V118.185C101.681 107.137 92.693 98.1432 81.6391 98.1432Z" fill="white"/>
<path d="M43.0422 61.0757C56.9893 61.0757 68.2956 49.7694 68.2956 35.8224C68.2956 21.8753 56.9893 10.569 43.0422 10.569C29.0951 10.569 17.7888 21.8753 17.7888 35.8224C17.7888 49.7694 29.0951 61.0757 43.0422 61.0757Z" fill="white"/>
<path d="M106.952 61.0757C120.899 61.0757 132.202 49.7648 132.202 35.8193C132.202 21.8783 120.894 10.569 106.952 10.569C93.0017 10.569 81.6999 21.8753 81.6999 35.8193C81.6999 49.7633 93.0017 61.0757 106.952 61.0757Z" fill="white"/>
<path d="M62.7237 95.6804C58.7148 92.2233 56.1652 87.1182 56.1652 81.4232C56.1652 74.439 59.9948 68.3427 65.6564 65.0908C61.9697 63.6238 57.9622 62.7937 53.7586 62.7937H32.3303C14.5035 62.7922 0 77.3017 0 95.1255V121.337L0.0653721 121.746L1.86995 122.307C18.5657 127.524 33.0995 129.32 45.1341 129.385V118.185C45.1341 107.324 52.6367 98.2086 62.7237 95.6804Z" fill="white"/>
<path d="M117.667 62.7921H96.2414C92.0378 62.7921 88.0349 63.6222 84.3467 65.0893C90.0128 68.3411 93.8424 74.4344 93.8424 81.4216C93.8424 87.1136 91.2913 92.2187 87.2854 95.6758C91.3233 96.6807 95.0403 98.7467 98.0611 101.769C102.452 106.163 104.87 111.994 104.869 118.188V129.385C116.903 129.32 131.439 127.523 148.132 122.307L149.936 121.746L150.003 121.337V95.1254C149.997 77.3017 135.493 62.7921 117.667 62.7921Z" fill="white"/>
</g>
<defs>
<clipPath id="clip0_69_3">
<rect width="150" height="150" fill="white"/>
</clipPath>
</defs>
</svg>
