<svg width="150" height="150" viewBox="0 0 150 150" fill="none" xmlns="http://www.w3.org/2000/svg">
<path fill-rule="evenodd" clip-rule="evenodd" d="M82.8122 35.1308C70.0296 30.9227 59.3225 33.8518 51.7531 40.9122C52.6719 41.3652 53.4848 42.0237 54.1345 42.8413C54.7842 43.659 55.2549 44.616 55.5134 45.6448C60.3969 65.1251 64.0595 56.7344 65.8298 63.8844C67.2366 68.9561 68.0564 74.1867 68.2716 79.4635C68.491 79.3733 68.7152 79.2965 68.943 79.2332C69.8297 78.9824 70.755 78.918 71.6655 79.0436C72.5761 79.1693 73.4539 79.4825 74.2483 79.9652C75.0428 80.448 75.7382 81.0907 76.2944 81.8564C76.8506 82.622 77.2567 83.4954 77.4892 84.4263C80.9565 98.0868 81.0175 107.04 77.9898 113.845C75.3282 119.473 71.0796 122.978 65.195 125.715C66.3304 126.879 67.5146 128.03 68.7599 129.155C78.5269 136.472 87.0731 135.474 94.9966 130.946C101.309 134.08 107.975 135.321 115.141 132.507C125.677 128.362 136.409 112.041 141.463 101.809C152.451 79.6809 156.26 51.2855 131.623 37.4459C124.896 33.6727 116.496 32.5599 105.85 35.0669C103.261 35.9713 100.575 36.5342 97.8535 36.7425C97.7438 31.6207 98.4493 26.5155 99.9412 21.6366C101.772 15.7507 105.028 10.4624 109.391 6.28775C109.781 6.01017 110.11 5.64771 110.355 5.22505C110.599 4.80238 110.754 4.32944 110.809 3.83842C110.863 3.3474 110.816 2.84983 110.671 2.37959C110.525 1.90935 110.285 1.47749 109.966 1.11339C109.646 0.749303 109.256 0.461536 108.821 0.269687C108.386 0.0778373 107.917 -0.0135893 107.446 0.00163151C106.974 0.0168523 106.511 0.138363 106.088 0.357891C105.665 0.577419 105.293 0.889808 104.996 1.27379C99.779 6.23467 95.8867 12.5344 93.7025 19.5517L93.4217 20.4599C86.6824 8.04008 75.1573 1.56798 56.3558 4.58659L48.9328 5.3924C54.3658 17.2238 61.044 29.2855 74.9131 31.0634C80.1873 31.7413 85.9011 30.5006 92.0055 27.1622L91.688 28.5052H91.7613C91.4125 31.2482 91.2534 34.0139 91.2851 36.7808C88.4124 36.5441 85.572 35.9866 82.8122 35.118V35.1308ZM21.4264 41.168C28.0802 30.0913 25.6385 20.025 9.3031 11.5703C4.41958 24.4506 6.43403 38.2006 21.4264 41.168ZM53.9629 129.629L59.8231 126.994L67.4047 145.348C69.0651 149.378 63.2171 152.025 61.5567 147.996L53.9873 129.641L53.9629 129.629ZM38.3112 74.9611C49.47 70.9576 53.5111 66.2379 48.8352 47.4995C40.0693 54.7518 29.8749 59.9448 38.36 74.9611H38.3112ZM30.3388 55.6983C40.7407 51.9506 44.5133 47.5634 40.1059 30.1169C31.9504 36.8576 22.4764 41.6925 30.3388 55.6983ZM51.3624 123.822C38.1281 131.125 30.522 130.946 18.0934 110.097C32.0969 107.91 45.5144 102.589 51.3624 123.822ZM41.3268 99.3914C29.5575 105.889 22.7328 105.787 11.7326 87.1891C24.1856 85.2449 36.1502 80.4867 41.3268 99.3914ZM32.3899 77.6472C21.9758 83.4158 15.8714 83.2623 6.1044 66.8774C17.1534 65.1634 27.7384 60.9425 32.3655 77.7111L32.3899 77.6472ZM24.4176 58.3588C14.6506 63.7309 9.05892 63.603 0 48.2669C10.2798 46.6553 20.1567 42.7413 24.4176 58.3588ZM57.3813 121.033C71.5313 115.917 76.659 109.982 70.6401 86.2425C59.5667 95.4774 46.662 102.065 57.3813 121.072V121.033ZM47.3091 96.6798C59.8841 92.1647 64.4014 86.8437 59.1028 65.739C49.2136 73.8995 37.7374 79.8088 47.3091 96.6798ZM55.5988 8.74357C69.8099 12.8238 78.8932 14.6273 90.1986 25.2564C75.8166 21.5471 67.1484 18.2727 55.5988 8.74357Z" fill="white"/>
</svg>
