<svg width="150" height="150" viewBox="0 0 150 150" fill="none" xmlns="http://www.w3.org/2000/svg">
<path d="M35.4492 2.77304C19.9219 6.6806 8.3203 17.773 3.74999 33.0882C1.87499 39.2016 1.23046 50.6722 2.28515 56.8487C4.21874 67.9411 8.43749 76.8277 15.4687 84.8949C19.4531 89.4327 19.9219 90.252 19.9219 92.4579C19.9219 95.8613 22.4414 100.966 25.0781 102.92C26.25 103.865 28.5937 104.937 30.2344 105.315C33.2226 106.071 33.2812 106.071 33.5742 108.844C33.6914 110.357 34.5117 112.689 35.4492 114.076C37.207 116.786 41.9531 119.748 44.5898 119.748C45.9961 119.748 46.1719 120.063 46.5234 122.521C47.3437 128.067 51.1523 132.353 56.7187 133.676C59.5312 134.37 59.7656 134.622 59.7656 136.26C59.7656 138.403 61.582 142.5 63.457 144.391C66.7383 147.794 72.8906 149.055 77.0508 147.227C79.5703 146.092 89.2969 136.134 91.5234 132.416C92.4023 130.84 93.1641 128.886 93.1641 128.067C93.1641 126.681 93.3398 126.555 95.1562 126.933C98.0273 127.5 102.012 126.239 104.531 124.034C106.816 122.017 108.984 118.109 108.984 116.029C108.984 113.823 109.688 112.815 111.27 112.815C113.438 112.752 117.188 110.798 119.062 108.655C120.879 106.513 122.461 102.794 122.461 100.588C122.461 99.2016 122.812 98.9495 125.742 98.3193C130.137 97.3109 134.531 92.8991 135.117 88.8655C135.41 87.1008 136.641 84.7058 139.102 81.1134C143.262 75.063 145.488 70.147 147.188 62.8991C149.004 55.21 148.535 44.6848 146.074 36.9957C143.555 29.2436 141.094 25.084 135.352 18.9075C127.441 10.3361 119.238 6.49153 107.52 5.86128C102.363 5.60918 99.9023 5.79825 95.2734 6.80666C89.5898 8.13019 81.6797 11.5966 77.8711 14.5588L76.1719 15.8823L73.3008 13.1092C69.2578 9.26463 64.6875 6.4285 58.7695 4.22263C54.3164 2.58397 52.6172 2.26884 46.2891 2.14279C41.4258 1.9537 37.793 2.20581 35.4492 2.77304ZM54.1992 9.76884C58.9453 11.0924 65.3906 14.6218 68.5547 17.584L71.1914 20.105L56.3672 36.1134L41.543 52.0588L44.2383 54.7688C45.7617 56.2814 48.457 58.2352 50.2734 59.1176C53.2031 60.6302 54.375 60.8193 59.4726 60.8193C68.0859 60.8193 69.9609 59.6848 80.625 48.4033L89.1211 39.4537L108.984 60.8193C130.371 83.8235 130.605 84.1386 128.672 88.1722C127.383 90.8193 124.688 92.2688 121.992 91.7016C120.234 91.3235 117.422 88.6764 105.176 75.5672C95.1562 64.9159 90.0586 59.8739 89.1797 59.8739C87.8906 59.8739 86.1328 62.0167 86.1328 63.5924C86.1328 64.0966 92.8711 71.7857 101.074 80.6722C115.898 96.7436 116.016 96.8697 116.016 99.5167C116.016 103.298 113.613 105.882 110.098 105.882C107.578 105.882 107.52 105.819 92.5781 89.8109C83.8476 80.4831 77.1094 73.7394 76.4648 73.7394C74.8828 73.7394 73.2422 75.6302 73.2422 77.4579C73.2422 78.7184 76.2891 82.3739 87.8906 94.8529C100.195 108.088 102.598 110.987 102.891 112.815C103.535 117.038 99.2578 121.197 95.3906 120.189C94.6289 119.937 92.3438 118.235 90.293 116.344C87.3633 113.571 85.8984 112.752 83.4375 112.185C80.5664 111.555 80.2734 111.302 80.2734 109.79C80.2148 107.395 78.3984 103.361 76.4062 101.344C74.4141 99.3907 70.957 97.689 68.9062 97.689C67.6172 97.689 67.3828 97.3109 66.7969 94.0966C66.2109 91.0083 65.625 89.9999 63.2812 87.4789C61.0547 85.21 59.7656 84.3907 57.1875 83.7604C54.2578 83.0672 53.9062 82.8151 53.9062 81.3655C53.8476 79.0335 51.9726 74.9999 50.0391 72.9831C46.5234 69.4537 40.8398 68.3193 36.5039 70.273C35.332 70.7772 31.7578 73.9915 28.5351 77.3949L22.7344 83.5083L19.5117 79.7268C7.03124 65.105 4.39452 42.731 13.2422 27.0378C17.5781 19.3487 26.6601 12.2268 35.1562 9.83186C39.5508 8.57137 49.8047 8.57137 54.1992 9.76884ZM117.891 14.6218C129.492 19.2856 137.871 29.2436 140.918 42.1008C142.09 47.2058 142.09 57.1008 140.918 62.0798C139.922 66.1764 136.641 73.8025 134.824 76.0714L133.77 77.4579L116.836 59.1176C96.0352 36.6806 90.0586 30.7562 88.6523 31.3235C88.0664 31.5125 83.3789 36.1764 78.2226 41.6596C67.6172 52.8781 65.4492 54.3277 59.5312 54.3907C56.1914 54.3907 50.9766 52.752 50.9766 51.7436C50.9766 50.8613 77.6953 22.8151 80.4492 20.8613C84.4336 17.9621 90.4687 15.063 95.2148 13.7394C101.367 12.0378 112.5 12.4789 117.891 14.6218ZM46.1719 78.4663C47.0508 79.6008 47.4609 80.9243 47.4609 82.689C47.4609 85.147 47.1094 85.6512 41.3086 91.9537C35.2734 98.5083 35.1562 98.6344 32.5195 98.6344C30.1758 98.6344 29.5312 98.3193 28.0664 96.5546C26.1914 94.2857 25.8984 91.7016 27.1875 88.9915C28.418 86.4075 38.3203 76.3865 39.9023 76.1344C42.1289 75.7562 44.707 76.7646 46.1719 78.4663ZM59.1211 92.2688C60.293 93.5924 60.6445 94.5378 60.6445 96.8067C60.6445 99.5798 60.5273 99.7688 54.4336 106.197C48.5742 112.437 48.1055 112.815 45.8203 112.815C41.7187 112.815 39.4336 109.79 39.7266 104.811C39.8437 103.235 46.9922 94.7899 50.6836 91.8907C52.6172 90.3151 53.4375 90.063 55.3125 90.3151C56.7187 90.5041 58.1836 91.3235 59.1211 92.2688ZM72.1289 106.45C73.4766 107.899 73.8281 108.844 73.8281 110.987C73.8281 113.571 73.5937 113.95 67.4414 120.567L60.9961 127.5L58.4766 127.122C55.1953 126.618 52.7344 123.908 52.7344 120.567C52.7344 118.55 53.3789 117.605 59.0039 111.492C65.0977 104.811 65.332 104.622 67.8516 104.622C69.9023 104.622 70.7226 105 72.1289 106.45ZM85.3711 120.567C86.25 121.45 86.9531 123.088 87.1289 124.727L87.4805 127.311L81.0937 134.244C74.9414 140.987 74.707 141.176 72.1875 141.176C68.5547 141.176 66.2109 138.655 66.2109 134.748C66.2109 132.038 66.3867 131.786 72.6562 125.168L79.1016 118.298L81.5039 118.676C83.0273 118.865 84.5508 119.622 85.3711 120.567Z" fill="white"/>
</svg>
