<svg width="100" height="100" viewBox="0 0 100 100" fill="none" xmlns="http://www.w3.org/2000/svg">
<g clip-path="url(#clip0_70_10)">
<path d="M50.0242 0.757812C29.4627 0.757812 23.4493 0.779025 22.2804 0.875994C18.0608 1.22675 15.4351 1.89115 12.5746 3.31539C10.3701 4.41009 8.63155 5.67902 6.91569 7.45781C3.79079 10.7018 1.8969 14.6927 1.21132 19.4366C0.877995 21.7396 0.781028 22.2093 0.761332 33.973C0.753756 37.8942 0.761332 43.0548 0.761332 49.9768C0.761332 70.5222 0.784059 76.5298 0.88254 77.6964C1.22344 81.8025 1.86736 84.3858 3.23095 87.2116C5.83694 92.6207 10.8141 96.6813 16.6775 98.1964C18.7078 98.7192 20.9501 99.0071 23.8288 99.1434C25.0485 99.1964 37.4799 99.2343 49.9189 99.2343C62.3579 99.2343 74.797 99.2192 75.9863 99.1586C79.3196 99.0018 81.2551 98.7419 83.3952 98.1889C89.2965 96.6661 94.1827 92.6661 96.8418 87.1813C98.1788 84.4237 98.8568 81.7419 99.1637 77.8502C99.2303 77.0018 99.2583 63.4737 99.2583 49.9639C99.2583 36.4518 99.2281 22.9487 99.1614 22.1002C98.8508 18.1457 98.1728 15.4866 96.7925 12.676C95.66 10.3752 94.4024 8.65705 92.5767 6.90024C89.3185 3.78812 85.3338 1.89418 80.5854 1.20933C78.2847 0.876752 77.8264 0.778267 66.054 0.757812H50.0242Z" fill="url(#paint0_radial_70_10)"/>
<path d="M50.0242 0.757812C29.4627 0.757812 23.4493 0.779025 22.2804 0.875994C18.0608 1.22675 15.4351 1.89115 12.5746 3.31539C10.3701 4.41009 8.63155 5.67902 6.91569 7.45781C3.79079 10.7018 1.8969 14.6927 1.21132 19.4366C0.877995 21.7396 0.781028 22.2093 0.761332 33.973C0.753756 37.8942 0.761332 43.0548 0.761332 49.9768C0.761332 70.5222 0.784059 76.5298 0.88254 77.6964C1.22344 81.8025 1.86736 84.3858 3.23095 87.2116C5.83694 92.6207 10.8141 96.6813 16.6775 98.1964C18.7078 98.7192 20.9501 99.0071 23.8288 99.1434C25.0485 99.1964 37.4799 99.2343 49.9189 99.2343C62.3579 99.2343 74.797 99.2192 75.9863 99.1586C79.3196 99.0018 81.2551 98.7419 83.3952 98.1889C89.2965 96.6661 94.1827 92.6661 96.8418 87.1813C98.1788 84.4237 98.8568 81.7419 99.1637 77.8502C99.2303 77.0018 99.2583 63.4737 99.2583 49.9639C99.2583 36.4518 99.2281 22.9487 99.1614 22.1002C98.8508 18.1457 98.1728 15.4866 96.7925 12.676C95.66 10.3752 94.4024 8.65705 92.5767 6.90024C89.3185 3.78812 85.3338 1.89418 80.5854 1.20933C78.2847 0.876752 77.8264 0.778267 66.054 0.757812H50.0242Z" fill="url(#paint1_radial_70_10)"/>
<path d="M50.0015 13.6362C40.1261 13.6362 38.8867 13.6794 35.008 13.8559C31.1369 14.0332 28.4946 14.6461 26.1825 15.5453C23.791 16.4741 21.7622 17.7165 19.7411 19.7385C17.7184 21.7597 16.476 23.7885 15.5442 26.1794C14.6427 28.4923 14.0291 31.1355 13.8549 35.0052C13.6814 38.884 13.636 40.1241 13.636 49.9999C13.636 59.8756 13.6799 61.1112 13.8556 64.99C14.0337 68.8612 14.6465 71.5037 15.545 73.8158C16.4745 76.2074 17.7169 78.2362 19.7388 80.2574C21.7592 82.2802 23.7879 83.5256 26.178 84.4544C28.4916 85.3537 31.1347 85.9665 35.005 86.1438C38.8837 86.3203 40.1223 86.3635 49.997 86.3635C59.8732 86.3635 61.1088 86.3203 64.9874 86.1438C68.8585 85.9665 71.5039 85.3537 73.8175 84.4544C76.2083 83.5256 78.234 82.2802 80.2544 80.2574C82.2771 78.2362 83.5194 76.2074 84.4512 73.8165C85.3451 71.5037 85.9588 68.8605 86.1406 64.9908C86.3148 61.112 86.3603 59.8756 86.3603 49.9999C86.3603 40.1241 86.3148 38.8847 86.1406 35.0059C85.9588 31.1347 85.3451 28.4923 84.4512 26.1802C83.5194 23.7885 82.2771 21.7597 80.2544 19.7385C78.2317 17.7158 76.2091 16.4734 73.8152 15.5453C71.4971 14.6461 68.8532 14.0332 64.9821 13.8559C61.1035 13.6794 59.8686 13.6362 49.9902 13.6362H50.0015ZM46.7395 20.1893C47.7077 20.1877 48.7879 20.1893 50.0015 20.1893C59.7103 20.1893 60.861 20.2241 64.695 20.3984C68.2404 20.5605 70.1645 21.1529 71.4463 21.6506C73.1432 22.3097 74.3531 23.0976 75.625 24.3703C76.8977 25.643 77.6855 26.8552 78.3461 28.5521C78.8438 29.8324 79.437 31.7567 79.5984 35.3021C79.7726 39.1355 79.8105 40.287 79.8105 49.9915C79.8105 59.6961 79.7726 60.8476 79.5984 64.6809C79.4362 68.2264 78.8438 70.1506 78.3461 71.4309C77.687 73.1279 76.8977 74.3362 75.625 75.6082C74.3523 76.8809 73.144 77.6688 71.4463 78.3279C70.1661 78.8279 68.2404 79.4188 64.695 79.5809C60.8618 79.7552 59.7103 79.7931 50.0015 79.7931C40.292 79.7931 39.1412 79.7552 35.308 79.5809C31.7627 79.4173 29.8385 78.8249 28.556 78.3271C26.859 77.668 25.647 76.8802 24.3743 75.6074C23.1016 74.3347 22.3137 73.1256 21.6531 71.4279C21.1554 70.1476 20.5623 68.2234 20.4009 64.6779C20.2267 60.8446 20.1918 59.693 20.1918 49.9824C20.1918 40.2718 20.2267 39.1264 20.4009 35.293C20.563 31.7476 21.1554 29.8234 21.6531 28.5415C22.3122 26.8446 23.1016 25.6324 24.3743 24.3597C25.647 23.087 26.859 22.2991 28.556 21.6385C29.8377 21.1385 31.7627 20.5476 35.308 20.3847C38.6625 20.2332 39.9624 20.1877 46.7395 20.1802V20.1893ZM69.4115 26.2271C67.0025 26.2271 65.048 28.1794 65.048 30.5893C65.048 32.9984 67.0025 34.9529 69.4115 34.9529C71.8206 34.9529 73.775 32.9984 73.775 30.5893C73.775 28.1802 71.8206 26.2256 69.4115 26.2256V26.2271ZM50.0015 31.3256C39.689 31.3256 31.3278 39.687 31.3278 49.9999C31.3278 60.3127 39.689 68.6703 50.0015 68.6703C60.3141 68.6703 68.6722 60.3127 68.6722 49.9999C68.6722 39.687 60.3141 31.3256 50.0015 31.3256ZM50.0015 37.8787C56.6953 37.8787 62.1224 43.3052 62.1224 49.9999C62.1224 56.6938 56.6953 62.1211 50.0015 62.1211C43.307 62.1211 37.8807 56.6938 37.8807 49.9999C37.8807 43.3052 43.307 37.8787 50.0015 37.8787Z" fill="white"/>
</g>
<defs>
<radialGradient id="paint0_radial_70_10" cx="0" cy="0" r="1" gradientUnits="userSpaceOnUse" gradientTransform="translate(26.9223 106.819) rotate(-90) scale(97.5975 90.7954)">
<stop stop-color="#FFDD55"/>
<stop offset="0.1" stop-color="#FFDD55"/>
<stop offset="0.5" stop-color="#FF543E"/>
<stop offset="1" stop-color="#C837AB"/>
</radialGradient>
<radialGradient id="paint1_radial_70_10" cx="0" cy="0" r="1" gradientUnits="userSpaceOnUse" gradientTransform="translate(-15.7414 7.8519) rotate(78.678) scale(43.6269 179.872)">
<stop stop-color="#3771C8"/>
<stop offset="0.128" stop-color="#3771C8"/>
<stop offset="1" stop-color="#6600FF" stop-opacity="0"/>
</radialGradient>
<clipPath id="clip0_70_10">
<rect width="100" height="100" fill="white"/>
</clipPath>
</defs>
</svg>
