<svg width="67" height="71" viewBox="0 0 67 71" fill="none" xmlns="http://www.w3.org/2000/svg">
<path d="M26.8274 60.0329C27.6334 55.0343 24.2346 50.3288 19.2361 49.5228C14.2375 48.7168 9.53193 52.1155 8.72592 57.1141C7.91991 62.1127 11.3187 66.8182 16.3172 67.6242C21.3158 68.4302 26.0213 65.0315 26.8274 60.0329Z" fill="#230E09"/>
<path d="M14.9109 70.7165H6.46938C6.46938 70.7165 0.294904 66.0514 0 61.1535C1.23868 59.9466 5.12621 64.33 5.12621 64.33C5.12621 64.33 1.32288 59.3669 2.00923 56.4236C6.01842 57.3696 7.86675 61.8817 7.86675 61.8817C6.97454 59.5529 7.20685 58.4566 8.0704 56.4236C10.5121 57.489 13.4704 65.0278 14.9109 70.7165Z" fill="#62BB8B"/>
<path d="M57.2413 69.834C57.2413 69.834 64.5724 68.7363 67 59.8482C63.2588 59.6314 58.3667 65.4607 58.3667 65.4607C63.2588 59.6318 63.7406 52.2949 63.7406 52.2949C63.7406 52.2949 57.56 54.0449 55.1761 63.5123C57.0107 51.1228 53.4529 49.6474 53.4529 49.6474C53.4529 49.6474 48.8187 58.1542 49.3098 65.3685C49.2957 68.5353 57.2413 69.834 57.2413 69.834Z" fill="#283E4C"/>
<path d="M33.8505 70.7575H59.7531C59.7531 70.7575 57.0707 66.2259 53.3348 67.6427C49.5994 69.0599 47.9609 59.6309 40.2189 62.8251C32.4769 66.0192 21.8467 47.4672 13.7238 62.1603C7.14559 68.7386 33.8505 70.7575 33.8505 70.7575Z" fill="#230E09"/>
<path d="M60.714 41.1353L57.884 36.0779C56.744 34.0413 56.3433 31.687 56.666 29.3753C57.4648 23.6545 56.499 12.2687 36.2533 12.0536V20.0927C36.2533 21.0537 37.0327 21.833 37.9936 21.833H37.9941C38.5186 21.833 39.0203 21.6007 39.343 21.1877C40.1571 20.1452 41.4959 19.5333 42.9647 19.7563C44.6437 20.0111 45.9803 21.4015 46.1764 23.0885C46.4475 25.4146 44.6367 27.3881 42.3647 27.3881C41.1503 27.3881 40.0699 26.8226 39.3672 25.9418C39.0317 25.5209 38.5314 25.2656 37.9932 25.2656C37.0322 25.2656 36.2529 26.045 36.2529 27.006V35.0503H28.2089C27.2479 35.0503 26.4686 34.2714 26.4686 33.31C26.4686 32.7718 26.7238 32.2719 27.1448 31.936C28.026 31.2334 28.5911 30.1529 28.5911 28.9385C28.5911 26.6665 26.6176 24.8557 24.2914 25.1268C22.6044 25.3234 21.2141 26.6595 20.9593 28.3385C20.7367 29.8073 21.3485 31.1461 22.3906 31.9602C22.8041 32.2829 23.036 32.785 23.036 33.3091C23.036 34.2701 22.2571 35.0499 21.2956 35.0499H13.2636C13.454 43.0581 16.5975 51.6553 21.9181 58.1586C22.894 59.3515 23.46 60.826 23.46 62.3671V70.7165H44.273V63.5454C44.273 61.5485 45.9031 59.936 47.8996 59.9572L49.9538 59.9792C53.9881 60.0224 57.2814 56.7639 57.2814 52.7296V47.1564C57.2814 46.061 57.8932 45.0577 58.8666 44.5556L59.8341 44.057C60.9014 43.5073 61.2999 42.1827 60.714 41.1353Z" fill="#62BB8B"/>
<path d="M36.2529 12.0487H35.6706C35.8676 12.0487 36.0594 12.0518 36.2529 12.054V12.0487Z" fill="#CD4234"/>
<path d="M19.77 24.8169L19.7696 24.8164C19.5532 24.339 19.1344 23.978 18.6244 23.8546C17.3385 23.5438 16.2286 22.5771 15.8248 21.1475C15.3632 19.5135 16.0778 17.722 17.5325 16.8461C19.5391 15.6387 22.0843 16.4727 23.0224 18.5415C23.524 19.6475 23.4552 20.865 22.9435 21.8687C22.6988 22.3483 22.6728 22.909 22.895 23.3992C23.2921 24.2747 24.3232 24.6621 25.1986 24.2654L32.5245 20.9426L29.2017 13.6167L26.3465 7.32146L23.0259 0C22.8487 0.0780238 22.6728 0.154286 22.4934 0.235836C7.78743 6.90577 6.29219 19.4632 11.5886 30.4386L18.9034 27.121C19.7793 26.7234 20.1672 25.6919 19.77 24.8169Z" fill="#283E4C"/>
<path d="M30.0687 11.3126C30.5589 11.0904 31.1196 11.1164 31.5992 11.3606C32.603 11.8729 33.8205 11.9412 34.9265 11.4395C36.9952 10.5011 37.8292 7.9558 36.6218 5.94966C35.7464 4.49454 33.9545 3.77999 32.3204 4.24196C30.8908 4.64574 29.9246 5.7557 29.6134 7.04155C29.4899 7.55113 29.1289 7.9699 28.6515 8.18678L28.6511 8.18722C27.7756 8.5844 26.7441 8.19648 26.3474 7.32103L29.2025 13.6163C28.8058 12.7408 29.1937 11.7093 30.0687 11.3126Z" fill="#283E4C"/>
<path d="M13.1838 70.7169H40.7139C40.7139 70.7169 38.6637 67.5096 36.0523 68.3471C33.4409 69.1847 35.1002 62.5077 28.3513 64.1017C21.6025 65.6956 22.6111 56.7643 14.3679 59.5181C8.57294 61.4537 10.8079 68.1959 13.1838 70.7169Z" fill="#283E4C"/>
<path d="M22.9791 70.7169H14.8946C14.8946 70.7169 12.7448 68.9898 12.583 66.8572C14.076 66.0655 16.3132 68.9656 16.3132 68.9656C16.3132 68.9656 13.4558 65.6807 14.3031 62.2599C17.1767 61.8253 19.1996 67.8014 19.1996 67.8014C19.1996 67.8014 18.3484 65.4219 19.3839 62.9952C21.4517 63.6939 23.0452 66.985 22.9791 70.7169Z" fill="white"/>
<path d="M50.3068 34.8965C50.3068 36.0823 49.3454 37.0437 48.1597 37.0437C46.9739 37.0437 46.0125 36.0823 46.0125 34.8965" stroke="#230E09" stroke-width="1.4173" stroke-miterlimit="10"/>
</svg>
