<svg width="100" height="100" viewBox="0 0 100 100" fill="none" xmlns="http://www.w3.org/2000/svg">
<path d="M87.5078 12.8047C85.0724 12.698 82.5896 13.4258 80.543 14.9375L75.0508 18.9922L50 37.5117L25.1836 19.168C24.8377 18.83 24.3812 18.6288 23.8984 18.6016H24.3984L19.4687 14.9531C17.4208 13.4377 14.9343 12.7058 12.4961 12.8125C10.0579 12.9192 7.66989 13.8629 5.8164 15.6914C3.46189 18.0127 2 21.2597 2 24.8203V31.6875C1.97085 31.883 1.97085 32.0818 2 32.2773V79C2 82.8424 5.15762 86 9 86H24C24.5304 85.9999 25.0391 85.7892 25.4142 85.4141C25.7892 85.0391 25.9999 84.5304 26 84V50.7461L48.8125 67.6094C49.1564 67.8631 49.5726 68 50 68C50.4274 68 50.8436 67.8631 51.1875 67.6094L74 50.7461V84C74.0001 84.5304 74.2108 85.0391 74.5858 85.4141C74.9609 85.7892 75.4696 85.9999 76 86H91C94.8424 86 98 82.8424 98 79V32.2383C98.0226 32.0658 98.0226 31.8912 98 31.7187V24.8203C98 21.3034 96.5809 18.0716 94.2578 15.7461C94.1907 15.6789 94.1682 15.6604 94.1953 15.6875C94.1914 15.6836 94.1875 15.6797 94.1836 15.6758C92.3305 13.8513 89.9432 12.9114 87.5078 12.8047ZM87.2891 16.8008C88.8017 16.8601 90.2681 17.4338 91.3789 18.5273C91.4167 18.5647 91.4443 18.5929 91.4258 18.5742C93.0187 20.1687 94 22.3772 94 24.8203V30.9922L78 42.8164V22C78.0008 21.9322 77.9982 21.8644 77.9922 21.7969L82.918 18.1562H82.9219C84.2192 17.1979 85.7765 16.7415 87.2891 16.8008ZM12.7148 16.8125C14.2291 16.7532 15.7918 17.2074 17.0898 18.168L22.0078 21.8047C22.002 21.8696 21.9994 21.9348 22 22V42.8164L6 30.9922V24.8203C6 22.349 7.00351 20.1377 8.625 18.5391C9.73551 17.4435 11.2005 16.8718 12.7148 16.8125ZM74 24.7422V45.7734L50 63.5117L26 45.7734V24.7461L48.8125 41.6094C49.1564 41.8631 49.5726 42 50 42C50.4274 42 50.8436 41.8631 51.1875 41.6094L74 24.7422ZM6 35.9648L22 47.793V82H9C7.31837 82 6 80.6816 6 79V35.9648ZM94 35.9648V79C94 80.6816 92.6816 82 91 82H78V47.793L94 35.9648Z" fill="#62BB8B"/>
</svg>
