<svg width="100" height="100" viewBox="0 0 100 100" fill="none" xmlns="http://www.w3.org/2000/svg">
<g clip-path="url(#clip0_48_21)">
<path d="M79.0315 61.9464C76.9843 59.8147 74.5149 58.675 71.8978 58.675C69.3018 58.675 66.8113 59.7936 64.6796 61.9253L58.0102 68.5736C57.4615 68.2781 56.9128 68.0037 56.3851 67.7294C55.6253 67.3495 54.9077 66.9907 54.2956 66.6108C48.0484 62.6429 42.3709 57.472 36.9257 50.7815C34.2875 47.4468 32.5146 44.6397 31.2271 41.7905C32.9578 40.2076 34.5618 38.5613 36.1236 36.9784C36.7146 36.3874 37.3056 35.7754 37.8965 35.1844C42.3287 30.7522 42.3287 25.0115 37.8965 20.5793L32.1347 14.8174C31.4804 14.1631 30.805 13.4878 30.1718 12.8124C28.9055 11.5038 27.5758 10.1531 26.204 8.88671C24.1567 6.86057 21.7085 5.78418 19.1336 5.78418C16.5587 5.78418 14.0682 6.86057 11.9576 8.88671C11.9365 8.90782 11.9365 8.90782 11.9154 8.92893L4.7395 16.1682C2.03797 18.8697 0.497253 22.1622 0.159563 25.9823C-0.346974 32.1452 1.46811 37.8859 2.86109 41.6427C6.28021 50.8659 11.3878 59.4137 19.0069 68.5736C28.2512 79.6119 39.3739 88.3285 52.0795 94.4703C56.9339 96.7708 63.4133 99.4934 70.6525 99.9577C71.0958 99.9788 71.5601 100 71.9822 100C76.8576 100 80.9521 98.2482 84.1602 94.7657C84.1813 94.7235 84.2235 94.7024 84.2446 94.6602C85.3421 93.3306 86.6084 92.1275 87.9381 90.8401C88.8456 89.9748 89.7743 89.0672 90.6818 88.1175C92.7713 85.9436 93.8688 83.4109 93.8688 80.8149C93.8688 78.1978 92.7502 75.6862 90.6185 73.5756L79.0315 61.9464ZM86.5873 84.1707C86.5662 84.1707 86.5662 84.1918 86.5873 84.1707C85.7642 85.0571 84.92 85.8591 84.0124 86.7456C82.6406 88.0541 81.2476 89.426 79.939 90.9667C77.8074 93.2461 75.2958 94.3225 72.0033 94.3225C71.6867 94.3225 71.349 94.3225 71.0324 94.3014C64.7641 93.9004 58.9389 91.4522 54.57 89.3627C42.6242 83.5797 32.1347 75.3696 23.418 64.9645C16.221 56.2901 11.4089 48.2699 8.22193 39.6588C6.25911 34.4035 5.54151 30.309 5.8581 26.4466C6.06915 23.9773 7.01891 21.93 8.77068 20.1783L15.9677 12.9812C17.0019 12.0104 18.0994 11.4827 19.1758 11.4827C20.5054 11.4827 21.5818 12.2847 22.2572 12.9601C22.2783 12.9812 22.2994 13.0023 22.3205 13.0234C23.608 14.2265 24.8321 15.4717 26.1196 16.8013C26.7738 17.4767 27.4492 18.1521 28.1246 18.8486L33.8864 24.6105C36.1236 26.8477 36.1236 28.916 33.8864 31.1532C33.2744 31.7653 32.6834 32.3773 32.0714 32.9683C30.2985 34.7834 28.61 36.4718 26.7738 38.1181C26.7316 38.1603 26.6894 38.1814 26.6683 38.2236C24.8532 40.0387 25.1909 41.8116 25.5708 43.0146C25.5919 43.0779 25.613 43.1412 25.6341 43.2046C27.1326 46.8347 29.2432 50.2539 32.4513 54.3273L32.4724 54.3484C38.2975 61.5243 44.4393 67.1173 51.2142 71.4017C52.0795 71.9505 52.966 72.3937 53.8102 72.8158C54.57 73.1957 55.2876 73.5545 55.8997 73.9344C55.9841 73.9766 56.0685 74.04 56.1529 74.0822C56.8705 74.441 57.5459 74.6098 58.2424 74.6098C59.9942 74.6098 61.0917 73.5123 61.4505 73.1535L68.6686 65.9354C69.3862 65.2178 70.5259 64.3525 71.8556 64.3525C73.1641 64.3525 74.2405 65.1756 74.8948 65.8932C74.9159 65.9143 74.9159 65.9143 74.937 65.9354L86.5662 77.5646C88.7401 79.7174 88.7401 81.9335 86.5873 84.1707Z" fill="#62BB8B"/>
<path d="M54.0424 23.7873C59.5721 24.7159 64.5952 27.333 68.6053 31.3431C72.6154 35.3532 75.2114 40.3763 76.1611 45.906C76.3933 47.299 77.5963 48.2699 78.9682 48.2699C79.137 48.2699 79.2848 48.2488 79.4536 48.2276C81.0154 47.9744 82.0496 46.497 81.7964 44.9352C80.6566 38.2447 77.4908 32.1451 72.6576 27.3119C67.8244 22.4787 61.7248 19.3129 55.0343 18.1732C53.4725 17.9199 52.0162 18.9541 51.7419 20.4948C51.4675 22.0355 52.4806 23.534 54.0424 23.7873Z" fill="#62BB8B"/>
<path d="M99.8839 44.1121C98.0055 33.0949 92.8135 23.0697 84.8356 15.0918C76.8576 7.11384 66.8324 1.92184 55.8152 0.0434386C54.2745 -0.230935 52.8182 0.824349 52.5439 2.36506C52.2906 3.92688 53.3248 5.38318 54.8866 5.65755C64.7218 7.3249 73.6918 11.9893 80.8255 19.1019C87.9592 26.2356 92.6025 35.2055 94.2698 45.0408C94.502 46.4337 95.705 47.4046 97.0769 47.4046C97.2457 47.4046 97.3934 47.3835 97.5623 47.3624C99.103 47.1302 100.158 45.6528 99.8839 44.1121Z" fill="#62BB8B"/>
</g>
<defs>
<clipPath id="clip0_48_21">
<rect width="100" height="100" fill="white"/>
</clipPath>
</defs>
</svg>
