<svg width="100" height="100" viewBox="0 0 100 100" fill="none" xmlns="http://www.w3.org/2000/svg">
<g clip-path="url(#clip0_51_31)">
<path d="M50 100C77.6142 100 100 77.6142 100 50C100 22.3858 77.6142 0 50 0C22.3858 0 0 22.3858 0 50C0 77.6142 22.3858 100 50 100Z" fill="url(#paint0_linear_51_31)"/>
<path d="M40.8333 72.9168C39.2135 72.9168 39.4887 72.3052 38.9301 70.7629L34.1667 55.086L70.8333 33.3335" fill="#C8DAEA"/>
<path d="M40.8333 72.9165C42.0833 72.9165 42.6356 72.3449 43.3333 71.6665L50 65.184L41.6842 60.1694" fill="#A9C9DD"/>
<path d="M41.6833 60.1709L61.8333 75.058C64.1327 76.3267 65.7922 75.6698 66.365 72.9232L74.5671 34.272C75.4068 30.9052 73.2837 29.3782 71.084 30.3769L22.9215 48.9481C19.634 50.2668 19.6531 52.1009 22.3222 52.9181L34.6818 56.7758L63.2956 38.7237C64.6464 37.9045 65.8861 38.3449 64.8686 39.248" fill="url(#paint1_linear_51_31)"/>
</g>
<defs>
<linearGradient id="paint0_linear_51_31" x1="1066.72" y1="266.72" x2="666.72" y2="1200" gradientUnits="userSpaceOnUse">
<stop stop-color="#37AEE2"/>
<stop offset="1" stop-color="#1E96C8"/>
</linearGradient>
<linearGradient id="paint1_linear_51_31" x1="594.29" y1="348.865" x2="719.483" y2="633.752" gradientUnits="userSpaceOnUse">
<stop stop-color="#EFF7FC"/>
<stop offset="1" stop-color="white"/>
</linearGradient>
<clipPath id="clip0_51_31">
<rect width="100" height="100" fill="white"/>
</clipPath>
</defs>
</svg>
